<svg width="180" height="33" viewBox="0 0 180 33" fill="none" xmlns="http://www.w3.org/2000/svg">
<path d="M0.936605 2.70654C0.936605 4.1793 2.13051 5.37321 3.60327 5.37321C5.07603 5.37321 6.26994 4.1793 6.26994 2.70654C6.26994 1.23378 5.07603 0.0398763 3.60327 0.0398763C2.13051 0.0398763 0.936605 1.23378 0.936605 2.70654ZM179.183 30.6692C179.442 30.5729 179.574 30.285 179.478 30.0262L177.908 25.8088C177.812 25.55 177.524 25.4182 177.265 25.5146C177.006 25.6109 176.875 25.8987 176.971 26.1575L178.366 29.9064L174.617 31.3015C174.358 31.3978 174.227 31.6857 174.323 31.9445C174.419 32.2033 174.707 32.335 174.966 32.2387L179.183 30.6692ZM3.10327 2.70654C3.10327 7.19324 6.87068 13.2928 17.597 17.5934C28.3358 21.899 46.1505 24.4576 74.548 21.8445L74.4564 20.8487C46.1347 23.4548 28.5 20.8874 17.9691 16.6652C7.42576 12.4379 4.10327 6.60786 4.10327 2.70654H3.10327ZM74.548 21.8445C131.212 16.6303 167.703 25.577 178.801 30.6552L179.217 29.7459C167.91 24.5722 131.23 15.6244 74.4564 20.8487L74.548 21.8445Z" fill="white"/>
</svg>
