<svg width="1512" height="979" viewBox="0 0 1512 979" fill="none" xmlns="http://www.w3.org/2000/svg">
<path fill-rule="evenodd" clip-rule="evenodd" d="M-319.539 -50.6995V978.301H1738.46V-50.6995H-319.539ZM615.086 884.839L615.086 977.388H522.536V884.839H615.086ZM615.999 883.926H708.548V791.377H615.999L615.999 883.926ZM522.536 883.926H615.086V791.377H522.536V883.926ZM708.548 977.388H615.999L615.999 884.839H708.548V977.388ZM521.623 883.926V791.377H429.074V883.926H521.623ZM521.623 977.388V884.839H429.074V977.388H521.623ZM335.611 884.839H428.16V977.388H335.611L335.611 884.839ZM428.16 883.926V791.377H335.611L335.611 883.926H428.16ZM334.698 883.926V791.377H242.148V883.926H334.698ZM334.698 977.388L334.698 884.839H242.148V977.388H334.698ZM241.236 884.839V977.388H148.686L148.686 884.839H241.236ZM241.236 791.377V883.926H148.686L148.686 791.377H241.236ZM147.773 883.926V791.377H55.2241V883.926H147.773ZM147.773 977.388L147.773 884.839H55.2241V977.388H147.773ZM54.3108 977.388V884.839H-38.2384V977.388H54.3108ZM54.3108 791.377V883.926H-38.2384V791.377H54.3108ZM-132.614 884.839L-132.614 977.388H-225.164L-225.164 884.839H-132.614ZM-131.701 883.926H-39.1516V791.377H-131.701L-131.701 883.926ZM-225.164 883.926H-132.614V791.377H-225.164L-225.164 883.926ZM-39.1516 977.388H-131.701L-131.701 884.839H-39.1516V977.388ZM-226.076 883.926V791.377H-318.626V883.926H-226.076ZM-226.076 977.388L-226.076 884.839H-318.626V977.388H-226.076ZM615.086 697.914L615.086 790.463H522.536V697.914H615.086ZM615.999 697.001H708.548V604.452H615.999L615.999 697.001ZM522.536 697.001H615.086V604.452H522.536V697.001ZM708.548 790.463H615.999L615.999 697.914H708.548V790.463ZM521.623 697.001V604.452H429.074V697.001H521.623ZM521.623 790.463V697.914H429.074V790.463H521.623ZM335.611 697.914H428.16V790.463H335.611L335.611 697.914ZM428.16 697.001V604.452H335.611L335.611 697.001H428.16ZM334.698 697.001V604.452H242.148V697.001H334.698ZM334.698 790.463L334.698 697.914H242.148V790.463H334.698ZM241.236 697.914V790.463H148.686L148.686 697.914H241.236ZM241.236 604.452V697.001H148.686L148.686 604.452H241.236ZM147.773 697.001V604.452H55.2241V697.001H147.773ZM147.773 790.463L147.773 697.914H55.2241V790.463H147.773ZM54.3108 790.463V697.914H-38.2388L-38.2384 790.463H54.3108ZM54.3108 604.452V697.001H-38.2384V604.452H54.3108ZM-39.1511 697.914H-131.701L-131.701 790.463H-39.1516L-39.1511 697.914ZM-132.614 697.914L-132.614 790.463H-225.164L-225.164 697.914H-132.614ZM-131.701 697.001H-39.1516V604.452H-131.701L-131.701 697.001ZM-225.164 697.001H-132.614V604.452H-225.164L-225.164 697.001ZM-226.076 697.001V604.452H-318.626V697.001H-226.076ZM-226.076 790.463L-226.076 697.914H-318.626V790.463H-226.076ZM615.086 510.989L615.086 603.538H522.536V510.989H615.086ZM615.999 510.076H708.548V417.527H615.999L615.999 510.076ZM522.536 510.076H615.086V417.527H522.536V510.076ZM708.548 603.538H615.999L615.999 510.989H708.548V603.538ZM521.623 510.076V417.527H429.074V510.076H521.623ZM521.623 603.538V510.989H429.074V603.538H521.623ZM335.611 510.989H428.16V603.538H335.611L335.611 510.989ZM428.16 510.076V417.527H335.611L335.611 510.076H428.16ZM334.698 510.076V417.527H242.148V510.076H334.698ZM334.698 603.538L334.698 510.989H242.148V603.538H334.698ZM241.236 510.989V603.538H148.686L148.686 510.989H241.236ZM241.236 417.527V510.076H148.686L148.686 417.527H241.236ZM147.773 510.076V417.527H55.2241V510.076H147.773ZM147.773 603.538L147.773 510.989H55.2241V603.538H147.773ZM54.3108 603.538V510.989H-38.2388L-38.2384 603.538H54.3108ZM54.3108 417.527V510.076H-38.2384V417.527H54.3108ZM-39.1511 510.989H-131.701L-131.701 603.538H-39.1516L-39.1511 510.989ZM-132.614 510.989L-132.614 603.538H-225.164L-225.164 510.989H-132.614ZM-131.701 510.076H-39.1516V417.527H-131.701L-131.701 510.076ZM-225.164 510.076H-132.614V417.527H-225.164L-225.164 510.076ZM-226.076 510.076V417.527H-318.626V510.076H-226.076ZM-226.076 603.538L-226.076 510.989H-318.626V603.538H-226.076ZM615.086 324.063V416.613H522.536V324.063H615.086ZM708.548 416.613H615.999V324.063H708.548V416.613ZM521.623 324.063H429.074V416.613H521.623V324.063ZM335.611 324.063V416.613H428.16V324.063H335.611ZM334.698 324.063H242.148V416.613H334.698V324.063ZM241.236 324.063V416.613H148.686V324.063H241.236ZM147.773 324.063H55.2241V416.613H147.773V324.063ZM54.3108 416.613V324.063H-38.2384V416.613H54.3108ZM-132.614 324.063V416.613H-225.164V324.063H-132.614ZM-39.1516 416.613H-131.701V324.063H-39.1516V416.613ZM-226.076 324.063H-318.626V416.613H-226.076V324.063ZM708.548 229.687V137.139H615.999V229.687H708.548ZM615.086 229.687L615.086 137.139H522.536V229.687H615.086ZM615.999 230.601H708.548V323.15H615.999L615.999 230.601ZM615.086 323.15L615.086 230.601H522.536V323.15H615.086ZM521.623 230.601V323.15H429.074V230.601H521.623ZM521.623 137.139V229.687H429.074V137.139H521.623ZM334.698 230.601L334.698 323.15H242.148V230.601H334.698ZM335.611 229.687H428.16V137.139H335.611V229.687ZM334.698 137.139L334.698 229.687H242.148V137.139H334.698ZM428.16 323.15H335.611L335.611 230.601H428.16V323.15ZM241.236 229.687V137.139H148.686V229.687H241.236ZM241.236 323.15V230.601H148.686L148.686 323.15H241.236ZM147.773 230.601L147.773 323.15H55.2241V230.601H147.773ZM147.773 137.139L147.773 229.687H55.2241V137.139H147.773ZM54.3108 229.687V137.139H-38.2384V229.687H54.3108ZM54.3108 230.601H-38.2384V323.15H54.3108V230.601ZM-131.701 323.15L-131.701 230.601H-39.1516V323.15H-131.701ZM-39.1516 229.687V137.139H-131.701V229.687H-39.1516ZM-132.614 229.687L-132.614 137.139H-225.164V229.687H-132.614ZM-132.614 323.15L-132.614 230.601H-225.164L-225.164 323.15H-132.614ZM-226.076 230.601L-226.076 323.15H-318.626V230.601H-226.076ZM-226.076 137.139L-226.076 229.687H-318.626V137.139H-226.076ZM615.999 136.226H708.548V43.6767H615.999L615.999 136.226ZM522.536 136.226H615.086V43.6767H522.536V136.226ZM521.623 136.226V43.6767H429.074V136.226H521.623ZM428.16 136.226V43.6767H335.611L335.611 136.226H428.16ZM334.698 136.226V43.6767H242.148V136.226H334.698ZM241.236 43.6767V136.226H148.686L148.686 43.6767H241.236ZM147.773 136.226V43.6767H55.2241V136.226H147.773ZM54.3108 43.6767V136.226H-38.2384V43.6767H54.3108ZM-131.701 136.226H-39.1516V43.6767H-131.701L-131.701 136.226ZM-225.164 136.226H-132.614V43.6767H-225.164L-225.164 136.226ZM-226.076 136.226V43.6767H-318.626V136.226H-226.076ZM615.086 -49.7867V42.7631H522.536V-49.7867H615.086ZM708.548 42.7631H615.999V-49.7867H708.548V42.7631ZM521.623 -49.7867H429.074V42.7631H521.623V-49.7867ZM334.698 -49.7867H242.148V42.7631H334.698V-49.7867ZM335.611 -49.7867V42.7631H428.16V-49.7867H335.611ZM241.236 -49.7867V42.7631H148.686V-49.7867H241.236ZM147.773 -49.7867H55.2241V42.7631H147.773V-49.7867ZM54.3108 42.7631V-49.7867H-38.2384V42.7631H54.3108ZM-132.614 -49.7867V42.7631H-225.164V-49.7867H-132.614ZM-39.1516 42.7631H-131.701V-49.7867H-39.1516V42.7631ZM-226.076 -49.7867H-318.626V42.7631H-226.076V-49.7867ZM1644.09 884.839L1644.09 977.388H1551.54V884.839H1644.09ZM1645 883.926H1737.55V791.377H1645V883.926ZM1551.54 883.926H1644.09V791.377H1551.54V883.926ZM1737.55 977.388H1645V884.839H1737.55V977.388ZM1550.62 883.926V791.377H1458.07V883.926H1550.62ZM1550.62 977.388V884.839H1458.07V977.388H1550.62ZM1364.61 884.839H1457.16V977.388H1364.61V884.839ZM1457.16 883.926V791.377H1364.61V883.926H1457.16ZM1363.7 883.926V791.377H1271.15V883.926H1363.7ZM1363.7 977.388V884.839H1271.15V977.388H1363.7ZM1270.24 884.839V977.388H1177.69L1177.69 884.839H1270.24ZM1270.24 791.377V883.926H1177.69L1177.69 791.377H1270.24ZM1176.77 883.926V791.377H1084.22V883.926H1176.77ZM1176.77 977.388V884.839H1084.22V977.388H1176.77ZM1083.31 977.388V884.839H990.762V977.388H1083.31ZM1083.31 791.377V883.926H990.762V791.377H1083.31ZM896.386 884.839V977.388H803.836V884.839H896.386ZM897.299 883.926H989.848V791.377H897.299L897.299 883.926ZM803.836 883.926H896.386V791.377H803.836V883.926ZM989.848 977.388H897.299L897.299 884.839H989.848V977.388ZM802.924 883.926V791.377H710.374V883.926H802.924ZM802.924 977.388L802.923 884.839H710.374V977.388H802.924ZM1644.09 697.914L1644.09 790.463H1551.54V697.914H1644.09ZM1645 697.001H1737.55V604.452H1645V697.001ZM1551.54 697.001H1644.09V604.452H1551.54V697.001ZM1737.55 790.463H1645V697.914H1737.55V790.463ZM1550.62 697.001V604.452H1458.07V697.001H1550.62ZM1550.62 790.463V697.914H1458.07V790.463H1550.62ZM1364.61 697.914H1457.16V790.463H1364.61V697.914ZM1457.16 697.001V604.452H1364.61V697.001H1457.16ZM1363.7 697.001V604.452H1271.15V697.001H1363.7ZM1363.7 790.463V697.914H1271.15V790.463H1363.7ZM1270.24 697.914V790.463H1177.69L1177.69 697.914H1270.24ZM1270.24 604.452V697.001H1177.69L1177.69 604.452H1270.24ZM1176.77 697.001V604.452H1084.22V697.001H1176.77ZM1176.77 790.463V697.914H1084.22V790.463H1176.77ZM1083.31 790.463V697.914H990.761L990.762 790.463H1083.31ZM1083.31 604.452V697.001H990.762V604.452H1083.31ZM989.849 697.914H897.299L897.299 790.463H989.848L989.849 697.914ZM896.386 697.914V790.463H803.836V697.914H896.386ZM897.299 697.001H989.848V604.452H897.299L897.299 697.001ZM803.836 697.001H896.386V604.452H803.836V697.001ZM802.924 697.001V604.452H710.374V697.001H802.924ZM802.924 790.463L802.923 697.914H710.374V790.463H802.924ZM1644.09 510.989L1644.09 603.538H1551.54V510.989H1644.09ZM1645 510.076H1737.55V417.527H1645V510.076ZM1551.54 510.076H1644.09V417.527H1551.54V510.076ZM1737.55 603.538H1645V510.989H1737.55V603.538ZM1550.62 510.076V417.527H1458.07V510.076H1550.62ZM1550.62 603.538V510.989H1458.07V603.538H1550.62ZM1364.61 510.989H1457.16V603.538H1364.61V510.989ZM1457.16 510.076V417.527H1364.61V510.076H1457.16ZM1363.7 510.076V417.527H1271.15V510.076H1363.7ZM1363.7 603.538V510.989H1271.15V603.538H1363.7ZM1270.24 510.989V603.538H1177.69L1177.69 510.989H1270.24ZM1270.24 417.527V510.076H1177.69L1177.69 417.527H1270.24ZM1176.77 510.076V417.527H1084.22V510.076H1176.77ZM1176.77 603.538V510.989H1084.22V603.538H1176.77ZM1083.31 603.538V510.989H990.761L990.762 603.538H1083.31ZM1083.31 417.527V510.076H990.762V417.527H1083.31ZM989.849 510.989H897.299L897.299 603.538H989.848L989.849 510.989ZM896.386 510.989V603.538H803.836V510.989H896.386ZM897.299 510.076H989.848V417.527H897.299L897.299 510.076ZM803.836 510.076H896.386V417.527H803.836V510.076ZM802.924 510.076V417.527H710.374V510.076H802.924ZM802.924 603.538L802.923 510.989H710.374V603.538H802.924ZM1644.09 324.063V416.613H1551.54V324.063H1644.09ZM1737.55 416.613H1645V324.063H1737.55V416.613ZM1550.62 324.063H1458.07V416.613H1550.62V324.063ZM1364.61 324.063V416.613H1457.16V324.063H1364.61ZM1363.7 324.063H1271.15V416.613H1363.7V324.063ZM1270.24 324.063V416.613H1177.69V324.063H1270.24ZM1176.77 324.063H1084.22V416.613H1176.77V324.063ZM1083.31 416.613V324.063H990.762V416.613H1083.31ZM896.386 324.063V416.613H803.836V324.063H896.386ZM989.848 416.613H897.299V324.063H989.848V416.613ZM802.924 324.063H710.374V416.613H802.924V324.063ZM1737.55 229.687V137.139H1645V229.687H1737.55ZM1644.09 229.687L1644.09 137.139H1551.54V229.687H1644.09ZM1645 230.601H1737.55V323.15H1645V230.601ZM1644.09 323.15L1644.09 230.601H1551.54V323.15H1644.09ZM1550.62 230.601V323.15H1458.07V230.601H1550.62ZM1550.62 137.139V229.687H1458.07V137.139H1550.62ZM1363.7 230.601V323.15H1271.15V230.601H1363.7ZM1364.61 229.687H1457.16V137.139H1364.61V229.687ZM1363.7 137.139V229.687H1271.15V137.139H1363.7ZM1457.16 323.15H1364.61V230.601H1457.16V323.15ZM1270.24 229.687V137.139H1177.69V229.687H1270.24ZM1270.24 323.15V230.601H1177.69L1177.69 323.15H1270.24ZM1176.77 230.601V323.15H1084.22V230.601H1176.77ZM1176.77 137.139V229.687H1084.22V137.139H1176.77ZM1083.31 229.687V137.139H990.762V229.687H1083.31ZM1083.31 230.601H990.762V323.15H1083.31V230.601ZM897.299 323.15L897.299 230.601H989.848V323.15H897.299ZM989.848 229.687V137.139H897.299V229.687H989.848ZM896.386 229.687V137.139H803.836V229.687H896.386ZM896.386 323.15V230.601H803.836V323.15H896.386ZM802.923 230.601L802.924 323.15H710.374V230.601H802.923ZM802.923 137.139L802.924 229.687H710.374V137.139H802.923ZM1645 136.226H1737.55V43.6767H1645V136.226ZM1551.54 136.226H1644.09V43.6767H1551.54V136.226ZM1550.62 136.226V43.6767H1458.07V136.226H1550.62ZM1457.16 136.226V43.6767H1364.61V136.226H1457.16ZM1363.7 136.226V43.6767H1271.15V136.226H1363.7ZM1270.24 43.6767V136.226H1177.69L1177.69 43.6767H1270.24ZM1176.77 136.226V43.6767H1084.22V136.226H1176.77ZM1083.31 43.6767V136.226H990.762V43.6767H1083.31ZM897.299 136.226H989.848V43.6767H897.299L897.299 136.226ZM803.836 136.226H896.386V43.6767H803.836V136.226ZM802.924 136.226V43.6767H710.374V136.226H802.924ZM1644.09 -49.7867V42.7631H1551.54V-49.7867H1644.09ZM1737.55 42.7631H1645V-49.7867H1737.55V42.7631ZM1550.62 -49.7867H1458.07V42.7631H1550.62V-49.7867ZM1363.7 -49.7867H1271.15V42.7631H1363.7V-49.7867ZM1364.61 -49.7867V42.7631H1457.16V-49.7867H1364.61ZM1270.24 -49.7867V42.7631H1177.69V-49.7867H1270.24ZM1176.77 -49.7867H1084.22V42.7631H1176.77V-49.7867ZM1083.31 42.7631V-49.7867H990.762V42.7631H1083.31ZM896.386 -49.7867V42.7631H803.836V-49.7867H896.386ZM989.848 42.7631H897.299V-49.7867H989.848V42.7631ZM802.924 -49.7867H710.374V42.7631H802.924V-49.7867Z" fill="url(#paint0_radial_2538_363)" fill-opacity="0.4"/>
<defs>
<radialGradient id="paint0_radial_2538_363" cx="0" cy="0" r="1" gradientUnits="userSpaceOnUse" gradientTransform="translate(981.961 334.301) rotate(152.548) scale(621.478 1242.96)">
<stop stop-color="white" stop-opacity="0.47"/>
<stop offset="1" stop-opacity="0"/>
</radialGradient>
</defs>
</svg>
