<svg xmlns="http://www.w3.org/2000/svg" width="51" height="15" viewBox="0 0 51 15" fill="none">
  <path d="M1.0102 6.00005C0.457948 5.99442 0.0056873 6.43754 5.20349e-05 6.9898C-0.00558323 7.54205 0.43754 7.99431 0.989796 7.99995L1.0102 6.00005ZM50.6999 8.21429C51.0943 7.82777 51.1008 7.19463 50.7143 6.80015L44.4156 0.37158C44.0291 -0.0229086 43.3959 -0.0293692 43.0015 0.35715C42.607 0.74367 42.6005 1.3768 42.987 1.77129L48.5859 7.48557L42.8716 13.0844C42.4771 13.4709 42.4706 14.1041 42.8572 14.4985C43.2437 14.893 43.8768 14.8995 44.2713 14.513L50.6999 8.21429ZM0.989796 7.99995L49.9898 8.49995L50.0102 6.50005L1.0102 6.00005L0.989796 7.99995Z" fill="white"/>
</svg>
