<svg width="56" height="56" viewBox="0 0 56 56" fill="none" xmlns="http://www.w3.org/2000/svg">
<circle cx="28" cy="28" r="28" fill="#0B0B0B"/>
<path d="M21.3359 20.9597C21.3359 20.2303 21.6257 19.5309 22.1414 19.0151C22.6571 18.4994 23.3566 18.2097 24.0859 18.2097C24.8153 18.2097 25.5148 18.4994 26.0305 19.0151C26.5462 19.5309 26.8359 20.2303 26.8359 20.9597C26.8359 21.689 26.5462 22.3885 26.0305 22.9042C25.5148 23.42 24.8153 23.7097 24.0859 23.7097C23.3566 23.7097 22.6571 23.42 22.1414 22.9042C21.6257 22.3885 21.3359 21.689 21.3359 20.9597ZM24.0859 19.5847C23.7213 19.5847 23.3715 19.7296 23.1137 19.9874C22.8558 20.2453 22.7109 20.595 22.7109 20.9597C22.7109 21.3244 22.8558 21.6741 23.1137 21.932C23.3715 22.1898 23.7213 22.3347 24.0859 22.3347C24.4506 22.3347 24.8003 22.1898 25.0582 21.932C25.3161 21.6741 25.4609 21.3244 25.4609 20.9597C25.4609 20.595 25.3161 20.2453 25.0582 19.9874C24.8003 19.7296 24.4506 19.5847 24.0859 19.5847ZM30.6571 23.1377C30.369 22.918 30.1272 22.6435 29.9455 22.33C29.7639 22.0165 29.6459 21.6702 29.5985 21.311C29.5511 20.9518 29.5752 20.5868 29.6693 20.2369C29.7634 19.8871 29.9257 19.5592 30.1469 19.2723C30.3681 18.9853 30.6438 18.7449 30.9582 18.5648C31.2726 18.3848 31.6194 18.2686 31.9789 18.223C32.3383 18.1774 32.7032 18.2033 33.0526 18.2992C33.402 18.3951 33.729 18.559 34.0148 18.7817C34.5776 19.2319 34.9412 19.885 35.0273 20.6005C35.1134 21.316 34.9152 22.0367 34.4754 22.6076C34.0355 23.1785 33.3891 23.5539 32.6753 23.653C31.9614 23.7521 31.2358 23.5671 30.6571 23.1377ZM32.3359 19.5847C31.9713 19.5847 31.6215 19.7296 31.3637 19.9874C31.1058 20.2453 30.9609 20.595 30.9609 20.9597C30.9609 21.3244 31.1058 21.6741 31.3637 21.932C31.6215 22.1898 31.9713 22.3347 32.3359 22.3347C32.7006 22.3347 33.0503 22.1898 33.3082 21.932C33.5661 21.6741 33.7109 21.3244 33.7109 20.9597C33.7109 20.595 33.5661 20.2453 33.3082 19.9874C33.0503 19.7296 32.7006 19.5847 32.3359 19.5847ZM20.6484 25.0847H24.3197C24.1684 25.5151 24.0859 25.9784 24.0859 26.4597H20.6484C20.4661 26.4597 20.2912 26.5321 20.1623 26.6611C20.0334 26.79 19.9609 26.9649 19.9609 27.1472C19.9609 28.2706 20.4078 29.1038 21.1132 29.6703C21.4377 29.9316 21.8268 30.1419 22.2668 30.2959C21.9437 30.6394 21.6947 31.0456 21.5353 31.4894C21.0735 31.3046 20.6413 31.0531 20.2524 30.7428C19.2184 29.9109 18.5859 28.6817 18.5859 27.1472C18.5859 26.6002 18.8032 26.0756 19.19 25.6888C19.5768 25.302 20.1014 25.0847 20.6484 25.0847ZM25.8294 25.0847C25.4648 25.7167 25.3661 26.4676 25.5551 27.1724C25.7441 27.8771 26.2053 28.4779 26.8373 28.8426C27.4693 29.2072 28.2202 29.3059 28.925 29.1169C29.6297 28.9279 30.2305 28.4667 30.5952 27.8347C30.9599 27.2027 31.0585 26.4518 30.8695 25.747C30.6805 25.0423 30.2193 24.4415 29.5873 24.0768C28.9553 23.7121 28.2044 23.6135 27.4996 23.8025C26.7949 23.9915 26.1941 24.4527 25.8294 25.0847ZM27.9029 25.1191C28.1044 25.0736 28.3135 25.0739 28.5148 25.12C28.7162 25.1661 28.9045 25.2569 29.0661 25.3856C29.2276 25.5143 29.3582 25.6776 29.4482 25.8635C29.5382 26.0494 29.5852 26.2532 29.5859 26.4597C29.5859 26.566 29.5745 26.6687 29.5516 26.7677C29.4964 27.0068 29.3782 27.2268 29.2094 27.4049C29.0405 27.5829 28.827 27.7125 28.5911 27.7802C28.3553 27.848 28.1056 27.8513 27.868 27.7899C27.6303 27.7286 27.4135 27.6048 27.2399 27.4313C27.0663 27.2578 26.9423 27.0411 26.8807 26.8035C26.8192 26.566 26.8223 26.3163 26.8898 26.0803C26.9573 25.8444 27.0868 25.6308 27.2647 25.4618C27.4426 25.2928 27.6639 25.1744 27.9029 25.1191ZM35.3073 29.6703C34.9828 29.9316 34.5937 30.1419 34.1537 30.2959C34.4763 30.6395 34.7248 31.0458 34.8838 31.4894C35.3513 31.2983 35.7844 31.0494 36.1681 30.7428C37.2034 29.9109 37.8359 28.6817 37.8359 27.1472C37.8359 26.6002 37.6186 26.0756 37.2318 25.6888C36.8451 25.302 36.3204 25.0847 35.7734 25.0847H32.1022C32.2534 25.5151 32.3359 25.9784 32.3359 26.4597H35.7734C35.9558 26.4597 36.1306 26.5321 36.2596 26.6611C36.3885 26.79 36.4609 26.9649 36.4609 27.1472C36.4609 28.2706 36.0127 29.1038 35.3073 29.6703ZM31.6484 30.5847C32.1954 30.5847 32.7201 30.802 33.1068 31.1888C33.4936 31.5756 33.7109 32.1002 33.7109 32.6472C33.7109 34.1817 33.0798 35.4109 32.0444 36.2428C31.0256 37.0609 29.6588 37.4597 28.2109 37.4597C26.7631 37.4597 25.3963 37.0609 24.3774 36.2428C23.3434 35.4109 22.7109 34.1817 22.7109 32.6472C22.7102 32.3761 22.7631 32.1076 22.8665 31.857C22.9699 31.6065 23.1217 31.3788 23.3134 31.1872C23.5051 30.9955 23.7327 30.8436 23.9833 30.7402C24.2339 30.6368 24.5024 30.584 24.7734 30.5847H31.6484ZM31.6484 31.9597H24.7734C24.5911 31.9597 24.4162 32.0321 24.2873 32.1611C24.1584 32.29 24.0859 32.4649 24.0859 32.6472C24.0859 33.7706 24.5328 34.6038 25.2382 35.1703C25.9614 35.7506 27.0009 36.0847 28.2109 36.0847C29.4209 36.0847 30.4604 35.7506 31.1837 35.1703C31.8891 34.6038 32.3359 33.7706 32.3359 32.6472C32.3359 32.4649 32.2635 32.29 32.1346 32.1611C32.0056 32.0321 31.8308 31.9597 31.6484 31.9597Z" fill="white"/>
</svg>
