<svg width="56" height="56" viewBox="0 0 56 56" fill="none" xmlns="http://www.w3.org/2000/svg">
<circle cx="28" cy="28" r="28" fill="#0B0B0B"/>
<path d="M21.777 26.7217H19V21.9251C19 21.1351 19.6109 20.5144 20.3885 20.5144C21.166 20.5144 21.777 21.1351 21.777 21.9251V26.7217ZM25.6647 26.7217H22.8878V18.5393C22.8878 17.7493 23.4987 17.1286 24.2763 17.1286C25.0538 17.1286 25.6647 17.7493 25.6647 18.5393V26.7217ZM29.5525 26.7217H26.7755V17.4107C26.7755 16.6207 27.3865 16 28.164 16C28.9416 16 29.5525 16.6207 29.5525 17.4107V26.7217ZM33.4403 26.7217H30.6633V19.1036C30.6633 18.3136 31.2742 17.6929 32.0518 17.6929C32.8293 17.6929 33.4403 18.3136 33.4403 19.1036V26.7217ZM32.385 38.5719L29.608 35.7504L35.162 30.1075C35.9395 29.3174 37.1614 29.3174 37.8834 30.1075C38.661 30.8975 38.661 32.1389 37.8834 32.8725L32.385 38.5719Z" fill="white"/>
<path d="M30.6633 26.1572C30.6633 26.4958 30.4411 26.7215 30.1079 26.7215C29.7747 26.7215 29.5525 26.4958 29.5525 26.1572H26.7755C26.7755 26.4958 26.5534 26.7215 26.2201 26.7215C25.8869 26.7215 25.6647 26.4958 25.6647 26.1572H22.8878C22.8878 26.4958 22.6656 26.7215 22.3324 26.7215C21.9991 26.7215 21.777 26.4958 21.777 26.1572H19V35.186C19 37.6689 20.9994 39.7004 23.4432 39.7004H29.6636C31.7185 39.7004 33.4403 38.0075 33.4403 35.8632V26.1572H30.6633Z" fill="white"/>
<path d="M22.2988 31.0302L23.7851 29.5439L30.156 35.9149L28.6698 37.4011L22.2988 31.0302Z" fill="black"/>
<path d="M28.6551 29.5483L30.142 31.0346L23.771 37.4055L22.2842 35.9193L28.6551 29.5483Z" fill="black"/>
</svg>
