<svg width="21" height="20" viewBox="0 0 21 20" fill="none" xmlns="http://www.w3.org/2000/svg">
<path d="M1.04961 17.6521C0.551692 18.1501 0.551692 18.9574 1.04961 19.4553C1.54753 19.9532 2.35481 19.9532 2.85273 19.4553L1.04961 17.6521ZM20.4632 1.31665C20.4632 0.612488 19.8924 0.041651 19.1882 0.041651H7.71323C7.00907 0.041651 6.43823 0.612488 6.43823 1.31665C6.43823 2.02081 7.00907 2.59165 7.71323 2.59165L17.9132 2.59165V12.7917C17.9132 13.4958 18.4841 14.0667 19.1882 14.0667C19.8924 14.0667 20.4632 13.4958 20.4632 12.7917V1.31665ZM2.85273 19.4553L20.0898 2.21821L18.2867 0.41509L1.04961 17.6521L2.85273 19.4553Z" fill="white"/>
</svg>
