<svg width="36" height="36" viewBox="0 0 36 36" fill="none" xmlns="http://www.w3.org/2000/svg">
<path d="M27.1361 15.1314C27.1361 16.2091 26.2247 17.0827 25.1003 17.0827C23.9759 17.0827 23.0659 16.2077 23.0659 15.1314C23.0659 14.0552 23.9774 13.1816 25.1003 13.1816C26.2232 13.1816 27.1361 14.0537 27.1361 15.1314Z" fill="white"/>
<path fill-rule="evenodd" clip-rule="evenodd" d="M26.442 8.50302C24.8962 8.30469 22.9216 8.30469 20.4293 8.30469H14.8497C12.3559 8.30469 10.3814 8.30469 8.83699 8.50302C7.2474 8.70865 5.95824 9.14031 4.94324 10.113C3.92824 11.0872 3.47761 12.3209 3.26324 13.8464C3.05615 15.3251 3.05615 17.218 3.05615 19.6082V19.7541C3.05615 22.1443 3.05615 24.0372 3.26324 25.5189C3.47761 27.0428 3.92824 28.2766 4.94324 29.2493C5.95824 30.2234 7.2474 30.6551 8.83699 30.8593C10.3828 31.0605 12.3574 31.0605 14.8497 31.0605H20.4293C22.923 31.0605 24.8976 31.0605 26.442 30.8607C28.0316 30.6566 29.3207 30.2249 30.3357 29.2507C31.3507 28.278 31.8014 27.0443 32.0157 25.5203C32.2228 24.0386 32.2228 22.1457 32.2228 19.7555V19.6097C32.2228 17.218 32.2228 15.3266 32.0157 13.8449C31.8014 12.3209 31.3507 11.0872 30.3357 10.113C29.3207 9.14031 28.0316 8.70865 26.442 8.50302ZM9.10824 10.4368C7.74324 10.6118 6.95719 10.9428 6.38115 11.4926C5.80803 12.0439 5.46386 12.7964 5.28011 14.1045C5.13428 15.1545 5.10074 16.467 5.09344 18.182L5.77886 17.6059C7.41949 16.2307 9.8899 16.3095 11.4299 17.7853L17.2487 23.3634C17.537 23.6354 17.9092 23.8014 18.3042 23.8342C18.6992 23.8671 19.0937 23.7648 19.423 23.5443L19.8284 23.2716C20.7795 22.6356 21.912 22.3271 23.0541 22.3929C24.1963 22.4587 25.2859 22.8952 26.1576 23.6361L29.6678 26.6666C29.8107 26.2816 29.9201 25.8207 29.9989 25.2593C30.1855 23.9234 30.1884 22.1618 30.1884 19.6826C30.1884 17.2034 30.1855 15.4418 29.9989 14.1045C29.8151 12.7964 29.4709 12.0439 28.8964 11.4941C28.3232 10.9428 27.5357 10.6132 26.1707 10.4368C24.7766 10.2574 22.9391 10.2545 20.352 10.2545H14.927C12.3399 10.2545 10.5024 10.2574 9.10824 10.4368Z" fill="white"/>
<path d="M25.0567 4.24147C23.8025 4.08105 22.2071 4.08105 20.2164 4.08105H15.7102C13.721 4.08105 12.1242 4.08105 10.87 4.24147C9.57207 4.40918 8.48999 4.76355 7.63103 5.58314C7.15698 6.03817 6.79547 6.5974 6.5752 7.21647C7.3102 6.88105 8.14145 6.68272 9.07478 6.56022C10.6556 6.35605 12.6769 6.35605 15.2289 6.35605H20.9369C23.4889 6.35605 25.5087 6.35605 27.091 6.56022C27.9048 6.66668 28.6427 6.83147 29.3062 7.09397C29.0831 6.52372 28.7388 6.00873 28.2971 5.5846C27.4381 4.76355 26.356 4.40918 25.0567 4.24293" fill="white"/>
</svg>
