<svg width="36" height="36" fill="none" xmlns="http://www.w3.org/2000/svg"><mask id="prefix__a" style="mask-type:alpha" maskUnits="userSpaceOnUse" x="0" y="0" width="36" height="36"><path fill="#D9D9D9" d="M.513.719h35v35h-35z"/></mask><g mask="url(#prefix__a)"><path d="M4.888 15.302v-8.75h2.917V9.98a12.734 12.734 0 014.539-3.61 13.024 13.024 0 015.67-1.275c3.645 0 6.744 1.276 9.296 3.828 2.552 2.552 3.828 5.65 3.828 9.297h-2.917c0-2.844-.99-5.256-2.97-7.237C23.268 9 20.856 8.01 18.012 8.01a9.843 9.843 0 00-4.703 1.167 10.837 10.837 0 00-3.682 3.208h4.01v2.917h-8.75zm.073 4.375h2.99c.291 2.26 1.221 4.175 2.789 5.742 1.567 1.568 3.445 2.522 5.633 2.862l1.75 3.063c-3.355 0-6.296-1.112-8.823-3.336-2.528-2.224-3.974-5.001-4.339-8.33zm15.02 2.552l-3.426-3.427v-7.875h2.916v6.708l2.042 2.042-1.531 2.552zm6.746 13.49l-.438-2.188c-.291-.121-.565-.249-.82-.383a6.327 6.327 0 01-.784-.492l-2.114.657-1.459-2.48 1.677-1.458a6.226 6.226 0 010-1.896l-1.677-1.458 1.459-2.48 2.114.657a6.35 6.35 0 01.784-.492c.255-.134.529-.262.82-.383l.438-2.188h2.916l.438 2.188a6.734 6.734 0 011.604.948l2.115-.73 1.458 2.553-1.677 1.458c.048.316.073.62.073.912 0 .291-.025.595-.073.911l1.677 1.458-1.458 2.48-2.115-.657a6.335 6.335 0 01-.784.492 10.31 10.31 0 01-.82.383l-.438 2.188h-2.916zm1.458-4.375c.802 0 1.489-.286 2.06-.857a2.809 2.809 0 00.857-2.06c0-.802-.286-1.489-.857-2.06a2.809 2.809 0 00-2.06-.857c-.802 0-1.489.286-2.06.857a2.809 2.809 0 00-.857 2.06c0 .802.286 1.489.857 2.06a2.808 2.808 0 002.06.857z" fill="#fff"/></g></svg>
