<svg width="163" height="161" viewBox="0 0 163 161" fill="none" xmlns="http://www.w3.org/2000/svg">
<circle cx="79.0003" cy="84.0001" r="59" transform="rotate(-42 79.0003 84.0001)" fill="#A891EB"/>
<path d="M91.6725 82.1536L78.8414 67.9683L66.335 79.1623C66.187 79.2593 66.0656 79.3903 65.979 79.5466C65.8925 79.7028 65.8427 79.8807 65.8332 80.068C65.8236 80.2554 65.8545 80.4479 65.9237 80.6326C65.9929 80.8172 66.0989 80.9897 66.2344 81.1383C66.3699 81.2869 66.5317 81.4082 66.709 81.4939C66.8864 81.5796 67.0749 81.6278 67.2621 81.6352C67.4492 81.6425 67.6304 81.6089 67.7936 81.5366C67.9567 81.4643 68.098 81.355 68.2077 81.2161L77.5943 72.8444L77.9175 98.1049C77.922 98.4551 78.0645 98.8073 78.3136 99.0839C78.5627 99.3606 78.8981 99.5391 79.2459 99.5802C79.5937 99.6212 79.9255 99.5215 80.1683 99.3029C80.4111 99.0843 80.5449 98.7648 80.5405 98.4145L80.2173 73.1541L89.8468 83.7707C90.097 84.0468 90.433 84.2242 90.781 84.2641C91.129 84.3039 91.4604 84.2029 91.7025 83.9832C91.9445 83.7635 92.0773 83.4431 92.0716 83.0926C92.0659 82.742 91.9221 82.39 91.672 82.114L91.6725 82.1536Z" fill="black"/>
</svg>
