<svg width="56" height="56" viewBox="0 0 56 56" fill="none" xmlns="http://www.w3.org/2000/svg">
<circle cx="28" cy="28" r="28" fill="#0B0B0B"/>
<path d="M26.999 32.8345H28.999V26.8345H26.999V32.8345ZM27.999 24.8345C28.2824 24.8345 28.52 24.7385 28.712 24.5465C28.904 24.3545 28.9997 24.1171 28.999 23.8345C28.9984 23.5518 28.9024 23.3145 28.711 23.1225C28.5197 22.9305 28.2824 22.8345 27.999 22.8345C27.7157 22.8345 27.4784 22.9305 27.287 23.1225C27.0957 23.3145 26.9997 23.5518 26.999 23.8345C26.9984 24.1171 27.0944 24.3548 27.287 24.5475C27.4797 24.7401 27.717 24.8358 27.999 24.8345ZM27.999 37.8345C25.6824 37.2511 23.7697 35.9218 22.261 33.8465C20.7524 31.7711 19.9984 29.4671 19.999 26.9345V20.8345L27.999 17.8345L35.999 20.8345V26.9345C35.999 29.4678 35.245 31.7721 33.737 33.8475C32.229 35.9228 30.3164 37.2518 27.999 37.8345Z" fill="white"/>
</svg>
