<svg width="491" height="236" viewBox="0 0 491 236" fill="none" xmlns="http://www.w3.org/2000/svg">
<path d="M92.7206 12.7978C108.349 4.76534 126.893 4.76534 142.522 12.7978C147.72 15.4694 153.314 17.2871 159.09 18.1811C176.455 20.869 191.457 31.7687 199.38 47.4535C202.015 52.6703 205.472 57.429 209.619 61.5471C222.088 73.9287 227.819 91.5649 225.009 108.911C224.074 114.68 224.074 120.562 225.009 126.332C227.819 143.677 222.088 161.314 209.619 173.695C205.472 177.813 202.015 182.572 199.38 187.789C191.457 203.474 176.455 214.373 159.09 217.061C153.314 217.955 147.72 219.773 142.522 222.445C126.893 230.477 108.349 230.477 92.7206 222.445C87.5225 219.773 81.9283 217.955 76.1525 217.061C58.7873 214.373 43.7851 203.474 35.8626 187.789C33.2275 182.572 29.7701 177.813 25.6229 173.695C13.1541 161.314 7.42373 143.677 10.2335 126.332C11.1681 120.562 11.1681 114.68 10.2335 108.911C7.42373 91.5649 13.1541 73.9287 25.6229 61.5471C29.7701 57.429 33.2275 52.6703 35.8626 47.4535C43.7851 31.7687 58.7873 20.869 76.1525 18.1811C81.9283 17.2871 87.5225 15.4694 92.7206 12.7978Z" fill="#918CEC" fill-opacity="0.35"/>
<path d="M122.406 157.546V124.662H133.675V157.546H122.406Z" fill="#988EEC"/>
<path d="M164.445 158.57C161.714 158.57 159.084 158.229 156.558 157.546C154.031 156.794 151.709 155.77 149.592 154.472C147.474 153.106 145.63 151.467 144.06 149.555L151.231 142.384C152.938 144.365 154.884 145.867 157.07 146.892C159.323 147.848 161.85 148.326 164.65 148.326C167.177 148.326 169.089 147.95 170.387 147.199C171.685 146.448 172.333 145.355 172.333 143.921C172.333 142.418 171.719 141.257 170.489 140.438C169.26 139.618 167.655 138.935 165.675 138.389C163.763 137.774 161.714 137.16 159.528 136.545C157.411 135.931 155.362 135.111 153.382 134.087C151.47 132.994 149.899 131.526 148.67 129.682C147.44 127.838 146.826 125.447 146.826 122.511C146.826 119.369 147.543 116.672 148.977 114.418C150.479 112.164 152.562 110.423 155.226 109.193C157.958 107.964 161.201 107.35 164.958 107.35C168.919 107.35 172.402 108.067 175.407 109.501C178.48 110.867 181.041 112.95 183.09 115.75L175.919 122.921C174.485 121.145 172.846 119.813 171.002 118.925C169.158 118.038 167.041 117.594 164.65 117.594C162.397 117.594 160.655 117.935 159.426 118.618C158.197 119.301 157.582 120.291 157.582 121.589C157.582 122.955 158.197 124.013 159.426 124.764C160.655 125.516 162.226 126.165 164.138 126.711C166.119 127.257 168.167 127.872 170.285 128.555C172.47 129.169 174.519 130.057 176.431 131.218C178.412 132.311 180.016 133.813 181.246 135.726C182.475 137.57 183.09 139.994 183.09 142.999C183.09 147.78 181.417 151.57 178.07 154.37C174.724 157.17 170.182 158.57 164.445 158.57Z" fill="#988EEC"/>
<path d="M194.531 157.546V124.662H205.8V157.546H194.531Z" fill="#988EEC"/>
<path d="M254.19 157.546V129.169C254.19 125.891 253.132 123.194 251.014 121.077C248.966 118.96 246.302 117.901 243.024 117.901C240.839 117.901 238.892 118.379 237.185 119.335C235.478 120.291 234.146 121.623 233.19 123.33C232.234 125.038 231.756 126.984 231.756 129.169L227.351 126.711C227.351 122.955 228.17 119.642 229.809 116.774C231.448 113.837 233.702 111.55 236.57 109.911C239.507 108.203 242.785 107.35 246.405 107.35C250.093 107.35 253.371 108.306 256.239 110.218C259.107 112.062 261.361 114.486 263 117.491C264.639 120.428 265.459 123.501 265.459 126.711V157.546H254.19ZM220.487 157.546V108.374H231.756V157.546H220.487Z" fill="#988EEC"/>
<path d="M299.447 179.058C294.256 179.058 289.715 178.102 285.822 176.19C281.929 174.346 278.788 171.717 276.397 168.302L283.773 160.926C285.754 163.385 288.007 165.229 290.534 166.458C293.061 167.687 296.1 168.302 299.652 168.302C304.091 168.302 307.608 167.141 310.203 164.819C312.798 162.565 314.096 159.458 314.096 155.497V143.409L316.042 132.55L314.096 121.589V108.374H325.364V155.497C325.364 160.209 324.272 164.307 322.086 167.79C319.901 171.341 316.862 174.107 312.969 176.087C309.076 178.068 304.569 179.058 299.447 179.058ZM298.934 156.521C294.564 156.521 290.603 155.463 287.051 153.346C283.568 151.16 280.802 148.189 278.754 144.433C276.773 140.677 275.783 136.477 275.783 131.833C275.783 127.189 276.773 123.023 278.754 119.335C280.802 115.647 283.568 112.745 287.051 110.628C290.603 108.442 294.564 107.35 298.934 107.35C302.827 107.35 306.242 108.135 309.179 109.706C312.115 111.276 314.403 113.462 316.042 116.262C317.681 118.994 318.501 122.203 318.501 125.891V137.979C318.501 141.599 317.647 144.809 315.94 147.609C314.301 150.409 312.013 152.594 309.076 154.165C306.139 155.736 302.759 156.521 298.934 156.521ZM301.188 145.867C303.92 145.867 306.31 145.287 308.359 144.126C310.408 142.965 311.979 141.36 313.071 139.311C314.232 137.194 314.813 134.735 314.813 131.935C314.813 129.135 314.232 126.711 313.071 124.662C311.979 122.545 310.408 120.906 308.359 119.745C306.31 118.584 303.92 118.003 301.188 118.003C298.456 118.003 296.032 118.584 293.915 119.745C291.866 120.906 290.261 122.545 289.1 124.662C287.939 126.711 287.359 129.135 287.359 131.935C287.359 134.667 287.939 137.092 289.1 139.209C290.261 141.326 291.866 142.965 293.915 144.126C296.032 145.287 298.456 145.867 301.188 145.867Z" fill="#988EEC"/>
<path d="M465.481 158.57C459.813 158.57 454.998 157.546 451.037 155.497C447.076 153.448 443.525 150.443 440.383 146.482L448.373 138.492C450.354 141.36 452.71 143.614 455.442 145.253C458.174 146.823 461.657 147.609 465.891 147.609C469.852 147.609 472.993 146.789 475.315 145.15C477.706 143.511 478.901 141.257 478.901 138.389C478.901 135.999 478.286 134.052 477.057 132.55C475.828 131.048 474.189 129.818 472.14 128.862C470.159 127.838 467.94 126.95 465.481 126.199C463.091 125.379 460.666 124.491 458.208 123.535C455.818 122.511 453.598 121.247 451.549 119.745C449.569 118.242 447.964 116.296 446.734 113.906C445.505 111.515 444.89 108.476 444.89 104.788C444.89 100.554 445.915 96.9688 447.964 94.0322C450.081 91.0273 452.915 88.7394 456.466 87.1686C460.018 85.5979 463.979 84.8125 468.349 84.8125C473.062 84.8125 477.262 85.7345 480.95 87.5784C484.706 89.4223 487.745 91.7785 490.067 94.6468L482.077 102.637C480.028 100.315 477.876 98.6079 475.623 97.5152C473.437 96.3542 470.91 95.7737 468.042 95.7737C464.491 95.7737 461.691 96.4908 459.642 97.9249C457.661 99.3591 456.671 101.374 456.671 103.969C456.671 106.154 457.286 107.93 458.515 109.296C459.744 110.593 461.349 111.72 463.33 112.676C465.379 113.564 467.598 114.418 469.988 115.237C472.447 116.057 474.871 116.979 477.262 118.003C479.72 119.028 481.94 120.36 483.92 121.999C485.969 123.569 487.608 125.618 488.838 128.145C490.067 130.672 490.682 133.848 490.682 137.672C490.682 144.092 488.394 149.18 483.818 152.936C479.311 156.692 473.198 158.57 465.481 158.57Z" fill="#988EEC"/>
<circle cx="393.926" cy="122.488" r="31.1511" stroke="#988EEC" stroke-width="11"/>
<circle cx="128.86" cy="111.448" r="7.68307" fill="#988EEC"/>
<circle cx="200.569" cy="111.448" r="7.68307" fill="#988EEC"/>
<path fill-rule="evenodd" clip-rule="evenodd" d="M93.006 125.872L95.4498 143.826C95.9785 147.711 94.878 151.443 92.67 154.342C90.4499 157.257 87.1101 159.329 83.1813 159.863C81.446 147.115 70.1571 140.793 61.1833 150.077C60.0141 151.287 58.8851 152.502 57.8162 153.686C52.5779 159.489 48.7842 164.546 48.7842 164.546L35.2852 65.374L110.353 111.756L93.006 125.872ZM81.9055 121.536L84.522 140.758C83.0136 139.433 81.3267 138.297 79.465 137.396C71.5844 133.582 62.8985 135.093 56.0511 140.718L48.5735 85.7838L92.4926 112.92L81.9055 121.536Z" fill="#988EEC"/>
</svg>
