<svg width="150" height="41" viewBox="0 0 150 41" fill="none" xmlns="http://www.w3.org/2000/svg">
<path d="M28.6056 33.2808V22.4837H32.3055V33.2808H28.6056Z" fill="white"/>
<path d="M42.4089 33.6172C41.5119 33.6172 40.6486 33.5051 39.8189 33.2808C38.9892 33.0342 38.2268 32.6978 37.5317 32.2718C36.8366 31.8233 36.2311 31.2851 35.7154 30.6572L38.0699 28.3027C38.6305 28.953 39.2695 29.4463 39.9871 29.7827C40.7271 30.0966 41.5568 30.2536 42.4762 30.2536C43.3058 30.2536 43.9337 30.1303 44.3598 29.8836C44.7858 29.6369 44.9988 29.2782 44.9988 28.8073C44.9988 28.3139 44.797 27.9327 44.3934 27.6637C43.9898 27.3946 43.4628 27.1703 42.8125 26.9909C42.1846 26.7891 41.5119 26.5873 40.7944 26.3855C40.0992 26.1837 39.4265 25.9146 38.7762 25.5782C38.1483 25.2195 37.6326 24.7373 37.229 24.1319C36.8253 23.5264 36.6235 22.7416 36.6235 21.7774C36.6235 20.7459 36.859 19.8601 37.3299 19.1202C37.8232 18.3802 38.5071 17.8084 39.3817 17.4047C40.2786 17.0011 41.3437 16.7993 42.5771 16.7993C43.8776 16.7993 45.0213 17.0347 46.0079 17.5056C47.017 17.9541 47.8579 18.638 48.5306 19.5574L46.1761 21.9119C45.7052 21.3289 45.167 20.8916 44.5616 20.6001C43.9561 20.3086 43.261 20.1629 42.4762 20.1629C41.7362 20.1629 41.1644 20.275 40.7607 20.4992C40.3571 20.7235 40.1553 21.0486 40.1553 21.4747C40.1553 21.9231 40.3571 22.2707 40.7607 22.5174C41.1644 22.764 41.6801 22.9771 42.308 23.1565C42.9583 23.3358 43.631 23.5377 44.3261 23.7619C45.0437 23.9637 45.7164 24.2552 46.3443 24.6364C46.9946 24.9952 47.5215 25.4885 47.9252 26.1164C48.3288 26.7218 48.5306 27.5179 48.5306 28.5045C48.5306 30.0742 47.9812 31.3187 46.8824 32.2381C45.7837 33.1575 44.2925 33.6172 42.4089 33.6172Z" fill="white"/>
<path d="M52.2873 33.2808V22.4837H55.9872V33.2808H52.2873Z" fill="white"/>
<path d="M71.8759 33.2808V23.9637C71.8759 22.8874 71.5284 22.0016 70.8332 21.3065C70.1605 20.6113 69.286 20.2638 68.2096 20.2638C67.4921 20.2638 66.853 20.4207 66.2924 20.7347C65.7318 21.0486 65.2945 21.4859 64.9806 22.0465C64.6667 22.6071 64.5097 23.2461 64.5097 23.9637L63.0634 23.1565C63.0634 21.9231 63.3324 20.8356 63.8706 19.8938C64.4088 18.9296 65.1488 18.1784 66.0906 17.6402C67.0548 17.0796 68.1312 16.7993 69.3196 16.7993C70.5305 16.7993 71.6068 17.1132 72.5487 17.7411C73.4905 18.3465 74.2304 19.1426 74.7686 20.1292C75.3068 21.0935 75.5759 22.1025 75.5759 23.1565V33.2808H71.8759ZM60.8098 33.2808V17.1356H64.5097V33.2808H60.8098Z" fill="white"/>
<path d="M86.7356 40.3443C85.0314 40.3443 83.5402 40.0304 82.262 39.4025C80.9839 38.7971 79.9524 37.9338 79.1675 36.8126L81.5893 34.3908C82.2396 35.1981 82.9796 35.8035 83.8093 36.2071C84.639 36.6108 85.6368 36.8126 86.8029 36.8126C88.2604 36.8126 89.4153 36.4314 90.2674 35.669C91.1195 34.929 91.5455 33.9087 91.5455 32.6081V28.6391L92.1846 25.0737L91.5455 21.4747V17.1356H95.2455V32.6081C95.2455 34.1554 94.8867 35.5008 94.1691 36.6444C93.4515 37.8104 92.4537 38.7186 91.1755 39.3689C89.8974 40.0192 88.4174 40.3443 86.7356 40.3443ZM86.5674 32.9445C85.1323 32.9445 83.8317 32.5969 82.6657 31.9018C81.5221 31.1842 80.6139 30.2088 79.9412 28.9754C79.2909 27.7421 78.9657 26.3631 78.9657 24.8382C78.9657 23.3134 79.2909 21.9456 79.9412 20.7347C80.6139 19.5238 81.5221 18.5708 82.6657 17.8756C83.8317 17.1581 85.1323 16.7993 86.5674 16.7993C87.8456 16.7993 88.9668 17.0572 89.931 17.5729C90.8952 18.0887 91.6464 18.8062 92.1846 19.7256C92.7228 20.6226 92.9919 21.6765 92.9919 22.8874V26.8564C92.9919 28.0449 92.7116 29.0988 92.151 30.0182C91.6128 30.9375 90.8616 31.6551 89.8974 32.1708C88.9331 32.6866 87.8232 32.9445 86.5674 32.9445ZM87.3074 29.4463C88.2044 29.4463 88.9892 29.2557 89.6619 28.8745C90.3346 28.4933 90.8504 27.9664 91.2092 27.2937C91.5904 26.5985 91.781 25.7913 91.781 24.8719C91.781 23.9525 91.5904 23.1565 91.2092 22.4837C90.8504 21.7886 90.3346 21.2504 89.6619 20.8692C88.9892 20.488 88.2044 20.2974 87.3074 20.2974C86.4105 20.2974 85.6144 20.488 84.9193 20.8692C84.2465 21.2504 83.7196 21.7886 83.3384 22.4837C82.9572 23.1565 82.7666 23.9525 82.7666 24.8719C82.7666 25.7688 82.9572 26.5649 83.3384 27.26C83.7196 27.9552 84.2465 28.4933 84.9193 28.8745C85.6144 29.2557 86.4105 29.4463 87.3074 29.4463Z" fill="white"/>
<path d="M141.252 33.6172C139.391 33.6172 137.81 33.2808 136.509 32.6081C135.209 31.9354 134.043 30.9487 133.011 29.6482L135.635 27.0246C136.285 27.9664 137.059 28.7064 137.956 29.2445C138.853 29.7603 139.996 30.0182 141.386 30.0182C142.687 30.0182 143.718 29.7491 144.481 29.2109C145.266 28.6727 145.658 27.9327 145.658 26.9909C145.658 26.2061 145.456 25.567 145.053 25.0737C144.649 24.5804 144.111 24.1767 143.438 23.8628C142.788 23.5264 142.059 23.2349 141.252 22.9883C140.467 22.7192 139.671 22.4277 138.864 22.1137C138.079 21.7774 137.35 21.3625 136.677 20.8692C136.027 20.3759 135.5 19.7368 135.097 18.952C134.693 18.1671 134.491 17.1693 134.491 15.9584C134.491 14.5681 134.827 13.3909 135.5 12.4266C136.195 11.44 137.126 10.6888 138.292 10.173C139.458 9.65729 140.759 9.39941 142.194 9.39941C143.741 9.39941 145.12 9.70214 146.331 10.3076C147.564 10.913 148.562 11.6866 149.324 12.6285L146.701 15.252C146.028 14.4896 145.322 13.929 144.582 13.5703C143.864 13.189 143.035 12.9984 142.093 12.9984C140.927 12.9984 140.007 13.2339 139.335 13.7048C138.684 14.1757 138.359 14.8372 138.359 15.6893C138.359 16.4069 138.561 16.9899 138.965 17.4384C139.368 17.8644 139.895 18.2344 140.546 18.5484C141.218 18.8399 141.947 19.1202 142.732 19.3892C143.539 19.6583 144.335 19.9611 145.12 20.2974C145.927 20.6338 146.656 21.071 147.306 21.6092C147.979 22.125 148.517 22.7977 148.921 23.6274C149.324 24.457 149.526 25.4997 149.526 26.7555C149.526 28.8633 148.775 30.5339 147.273 31.7672C145.793 33.0005 143.786 33.6172 141.252 33.6172Z" fill="white"/>
<circle cx="117.757" cy="21.77" r="10.0341" stroke="white" stroke-width="4"/>
<circle cx="30.7247" cy="18.1448" r="2.52268" fill="white"/>
<circle cx="54.2699" cy="18.1448" r="2.52268" fill="white"/>
<path fill-rule="evenodd" clip-rule="evenodd" d="M18.9522 22.8813L19.7546 28.7762C19.9283 30.0517 19.5669 31.2774 18.8419 32.2292C18.113 33.1863 17.0164 33.8664 15.7264 34.042C15.1566 29.8562 11.45 27.7804 8.50348 30.8288C8.11958 31.226 7.74887 31.625 7.39792 32.0138C5.67795 33.9191 4.43232 35.5794 4.43232 35.5794L0 3.01709L24.6479 18.2462L18.9522 22.8813ZM15.3075 21.4574L16.1666 27.7689C15.6713 27.3339 15.1174 26.9608 14.5062 26.665C11.9186 25.4128 9.06667 25.9088 6.81835 27.7559L4.36313 9.71851L18.7837 18.6285L15.3075 21.4574Z" fill="#A891EB"/>
</svg>
