<svg width="167" height="168" viewBox="0 0 167 168" fill="none" xmlns="http://www.w3.org/2000/svg">
<path d="M53.8908 45.7502C55.6404 36.2856 66.2059 31.412 74.4106 36.285V36.285C79.0003 39.011 84.7608 38.7974 89.174 35.7386V35.7386C97.0303 30.2933 107.865 34.456 110.247 43.7133V43.7133C111.587 48.9231 115.805 52.9399 121.059 53.9351V53.9351C130.46 55.7156 135.238 66.3291 130.398 74.6783V74.6783C127.693 79.3452 127.921 85.2027 130.926 89.6446V89.6446C136.265 97.5375 132.26 108.545 123.046 110.974V110.974C117.87 112.338 113.931 116.599 112.953 121.893V121.893C111.203 131.358 100.638 136.231 92.4329 131.358V131.358C87.8432 128.632 82.0828 128.846 77.6695 131.905V131.905C69.8132 137.35 58.9787 133.187 56.597 123.93V123.93C55.2566 118.72 51.0386 114.704 45.7841 113.708V113.708C36.3837 111.928 31.6053 101.314 36.4452 92.9652V92.9652C39.1506 88.2983 38.923 82.4408 35.918 77.9988V77.9988C30.5785 70.1059 34.583 59.0984 43.7974 56.6695V56.6695C48.9735 55.3051 52.912 51.0448 53.8908 45.7502V45.7502Z" fill="#1C1C1C"/>
<path d="M53.9192 87.2402L50.5022 79.795H52.0697L54.8126 86.0803H53.9035L56.6622 79.795H58.1669L54.75 87.2402H53.9192Z" fill="#3F4DC8"/>
<path d="M74.7218 72.0322L68.5458 80.5442C69.3992 80.2029 70.2738 80.0322 71.1698 80.0322C72.4925 80.0322 73.7192 80.3629 74.8498 81.0242C75.9805 81.6856 76.8658 82.5816 77.5058 83.7122C78.1672 84.8216 78.4978 86.0376 78.4978 87.3602C78.4978 88.6829 78.1672 89.9096 77.5058 91.0402C76.8445 92.1709 75.9485 93.0669 74.8178 93.7282C73.7085 94.3896 72.4925 94.7202 71.1698 94.7202C69.8472 94.7202 68.6205 94.3896 67.4898 93.7282C66.3805 93.0669 65.4952 92.1709 64.8338 91.0402C64.1725 89.9096 63.8418 88.6829 63.8418 87.3602C63.8418 85.7602 64.3112 84.3202 65.2498 83.0402L73.2818 72.0322H74.7218ZM71.1698 93.5362C72.2792 93.5362 73.3032 93.2589 74.2418 92.7042C75.2018 92.1496 75.9592 91.4029 76.5138 90.4642C77.0685 89.5042 77.3458 88.4696 77.3458 87.3602C77.3458 86.2509 77.0685 85.2269 76.5138 84.2882C75.9592 83.3496 75.2018 82.6029 74.2418 82.0482C73.3032 81.4936 72.2792 81.2162 71.1698 81.2162C70.0605 81.2162 69.0258 81.4936 68.0658 82.0482C67.1272 82.6029 66.3805 83.3496 65.8258 84.2882C65.2712 85.2269 64.9938 86.2509 64.9938 87.3602C64.9938 88.4696 65.2712 89.5042 65.8258 90.4642C66.3805 91.4029 67.1272 92.1496 68.0658 92.7042C69.0258 93.2589 70.0605 93.5362 71.1698 93.5362ZM87.1453 91.8082C87.1453 91.0189 87.4227 90.3469 87.9773 89.7922C88.5533 89.2162 89.2467 88.9282 90.0573 88.9282C90.868 88.9282 91.5507 89.2162 92.1053 89.7922C92.6813 90.3469 92.9693 91.0189 92.9693 91.8082C92.9693 92.5976 92.6813 93.2802 92.1053 93.8562C91.5507 94.4322 90.868 94.7202 90.0573 94.7202C89.268 94.7202 88.5853 94.4322 88.0093 93.8562C87.4333 93.2802 87.1453 92.5976 87.1453 91.8082ZM108.177 83.1042L99.6328 71.9682H101.169L108.945 82.1122L116.753 71.9682H118.257L109.713 83.1042L118.257 94.2402H116.753L108.945 84.0962L101.169 94.2402H99.6328L108.177 83.1042Z" fill="white"/>
</svg>
