<svg width="99" height="101" viewBox="0 0 99 101" fill="none" xmlns="http://www.w3.org/2000/svg">
<path d="M21.1171 11.1192C23.157 1.71287 33.8674 -2.83341 41.9183 2.28962C46.422 5.15546 52.1863 5.11917 56.6915 2.19751C64.7117 -3.00359 75.4129 1.49039 77.5088 10.8165C78.6884 16.065 82.7808 20.2097 88.0022 21.3661C97.3435 23.4348 101.793 34.1903 96.6987 42.3867C93.8511 46.9681 93.8985 52.8298 96.7654 57.3621C101.859 65.4155 97.5184 76.2947 88.2337 78.439C83.0181 79.6436 78.9504 83.7808 77.8092 89.0427C75.7693 98.449 65.0589 102.995 57.008 97.8723C52.5043 95.0065 46.74 95.0427 42.2348 97.9644C34.2147 103.166 23.5134 98.6715 21.4175 89.3454C20.238 84.0968 16.1456 79.9521 10.9242 78.7958C1.5829 76.727 -2.86679 65.9716 2.22767 57.7752C5.07528 53.1938 5.02791 47.332 2.16099 42.7998C-2.93327 34.7464 1.40794 23.8672 10.6927 21.7228C15.9083 20.5183 19.976 16.3811 21.1171 11.1192Z" fill="#1C1C1C"/>
<path d="M16.2437 53.25L12.8267 45.8048L14.3941 45.8048L17.1371 52.0901L16.228 52.0901L18.9867 45.8048L20.4914 45.8048L17.0744 53.25L16.2437 53.25Z" fill="#3F4DC8"/>
<path d="M37.0463 38.042L30.8703 46.554C31.7236 46.2127 32.5983 46.042 33.4943 46.042C34.817 46.042 36.0436 46.3727 37.1743 47.034C38.305 47.6953 39.1903 48.5913 39.8303 49.722C40.4916 50.8313 40.8223 52.0473 40.8223 53.37C40.8223 54.6927 40.4916 55.9193 39.8303 57.05C39.169 58.1807 38.273 59.0767 37.1423 59.738C36.033 60.3993 34.817 60.73 33.4943 60.73C32.1716 60.73 30.945 60.3993 29.8143 59.738C28.705 59.0767 27.8196 58.1807 27.1583 57.05C26.497 55.9193 26.1663 54.6927 26.1663 53.37C26.1663 51.77 26.6356 50.33 27.5743 49.05L35.6063 38.042L37.0463 38.042ZM33.4943 59.546C34.6036 59.546 35.6276 59.2687 36.5663 58.714C37.5263 58.1593 38.2836 57.4127 38.8383 56.474C39.393 55.514 39.6703 54.4793 39.6703 53.37C39.6703 52.2607 39.393 51.2367 38.8383 50.298C38.2836 49.3593 37.5263 48.6127 36.5663 48.058C35.6276 47.5033 34.6036 47.226 33.4943 47.226C32.385 47.226 31.3503 47.5033 30.3903 48.058C29.4516 48.6127 28.705 49.3593 28.1503 50.298C27.5956 51.2367 27.3183 52.2607 27.3183 53.37C27.3183 54.4793 27.5956 55.514 28.1503 56.474C28.705 57.4127 29.4516 58.1593 30.3903 58.714C31.3503 59.2687 32.385 59.546 33.4943 59.546ZM49.4698 57.818C49.4698 57.0287 49.7471 56.3567 50.3018 55.802C50.8778 55.226 51.5711 54.938 52.3818 54.938C53.1925 54.938 53.8751 55.226 54.4298 55.802C55.0058 56.3567 55.2938 57.0287 55.2938 57.818C55.2938 58.6073 55.0058 59.29 54.4298 59.866C53.8751 60.442 53.1925 60.73 52.3818 60.73C51.5925 60.73 50.9098 60.442 50.3338 59.866C49.7578 59.29 49.4698 58.6073 49.4698 57.818ZM70.5013 49.114L61.9573 37.978L63.4933 37.978L71.2693 48.122L79.0773 37.978L80.5813 37.978L72.0373 49.114L80.5813 60.25L79.0773 60.25L71.2693 50.106L63.4933 60.25L61.9573 60.25L70.5013 49.114Z" fill="white"/>
</svg>
