<svg width="174" height="87" viewBox="0 0 174 87" fill="none" xmlns="http://www.w3.org/2000/svg">
<rect width="173.031" height="86.2564" rx="30.1322" fill="#1D1D1D"/>
<path d="M109.264 34.7663C109.234 34.9463 109.219 35.1013 109.219 35.2313C109.219 35.5513 109.304 35.7763 109.474 35.9063C109.654 36.0263 109.944 36.0863 110.344 36.0863H111.304L111.139 36.9863H110.014C109.394 36.9863 108.929 36.8663 108.619 36.6263C108.309 36.3863 108.154 35.9913 108.154 35.4413C108.154 35.2213 108.174 34.9963 108.214 34.7663L109.114 29.6813H107.974L108.139 28.7963H109.279L109.639 26.7413H110.689L110.329 28.7963H112.594L112.429 29.6813H110.164L109.264 34.7663ZM113.936 37.0613C113.746 37.0613 113.591 37.0013 113.471 36.8813C113.351 36.7613 113.291 36.6063 113.291 36.4163C113.291 36.1763 113.381 35.9663 113.561 35.7863C113.751 35.6063 113.966 35.5163 114.206 35.5163C114.396 35.5163 114.551 35.5763 114.671 35.6963C114.791 35.8063 114.851 35.9563 114.851 36.1463C114.851 36.3863 114.756 36.6013 114.566 36.7913C114.386 36.9713 114.176 37.0613 113.936 37.0613ZM128.63 28.6463C129.45 28.6463 130.105 28.8713 130.595 29.3213C131.095 29.7713 131.345 30.4313 131.345 31.3013C131.345 31.5713 131.315 31.8663 131.255 32.1863L130.4 36.9863H129.365L130.205 32.3063C130.255 32.0063 130.28 31.7563 130.28 31.5563C130.28 30.9063 130.105 30.4113 129.755 30.0713C129.405 29.7313 128.91 29.5613 128.27 29.5613C127.56 29.5613 126.935 29.7863 126.395 30.2363C125.865 30.6863 125.495 31.3363 125.285 32.1863L124.415 36.9863H123.38L124.22 32.3063C124.27 32.0063 124.295 31.7563 124.295 31.5563C124.295 30.9063 124.12 30.4113 123.77 30.0713C123.42 29.7313 122.93 29.5613 122.3 29.5613C121.54 29.5613 120.885 29.8113 120.335 30.3113C119.785 30.8013 119.42 31.5113 119.24 32.4413L118.445 36.9863H117.395L118.835 28.7963H119.885L119.63 30.2213C119.97 29.7113 120.405 29.3213 120.935 29.0513C121.475 28.7813 122.045 28.6463 122.645 28.6463C123.355 28.6463 123.945 28.8163 124.415 29.1563C124.885 29.4963 125.18 29.9963 125.3 30.6563C125.63 30.0063 126.095 29.5113 126.695 29.1713C127.295 28.8213 127.94 28.6463 128.63 28.6463ZM138.642 28.6763C139.332 28.6763 139.922 28.8113 140.412 29.0813C140.902 29.3413 141.272 29.7013 141.522 30.1613C141.782 30.6213 141.912 31.1463 141.912 31.7363C141.912 32.0063 141.892 32.2463 141.852 32.4563C141.792 32.7563 141.732 33.0263 141.672 33.2663H134.877C134.847 33.4563 134.832 33.6363 134.832 33.8063C134.832 34.5763 135.062 35.1713 135.522 35.5913C135.992 36.0113 136.587 36.2213 137.307 36.2213C137.997 36.2213 138.602 36.0563 139.122 35.7263C139.642 35.3963 140.022 34.9513 140.262 34.3913H141.387C141.047 35.1913 140.502 35.8463 139.752 36.3563C139.012 36.8563 138.147 37.1063 137.157 37.1063C136.137 37.1063 135.317 36.8163 134.697 36.2363C134.087 35.6463 133.782 34.8463 133.782 33.8363C133.782 33.5363 133.812 33.2213 133.872 32.8913C134.022 32.0413 134.322 31.2963 134.772 30.6563C135.232 30.0163 135.797 29.5263 136.467 29.1863C137.137 28.8463 137.862 28.6763 138.642 28.6763ZM140.772 32.4863C140.822 32.2063 140.847 31.9713 140.847 31.7813C140.847 31.0713 140.622 30.5263 140.172 30.1463C139.722 29.7663 139.147 29.5763 138.447 29.5763C137.937 29.5763 137.447 29.6863 136.977 29.9063C136.507 30.1263 136.097 30.4563 135.747 30.8963C135.397 31.3363 135.157 31.8663 135.027 32.4863H140.772ZM151.018 22.8863L143.953 39.4763H142.918L149.953 22.8863H151.018ZM71.6497 58.9863L69.2497 54.8163H67.9447V58.9863H66.2347V48.5613H69.8347C70.6347 48.5613 71.3097 48.7013 71.8597 48.9813C72.4197 49.2613 72.8347 49.6363 73.1047 50.1063C73.3847 50.5763 73.5247 51.1013 73.5247 51.6813C73.5247 52.3613 73.3247 52.9813 72.9247 53.5413C72.5347 54.0913 71.9297 54.4663 71.1097 54.6663L73.6897 58.9863H71.6497ZM67.9447 53.4513H69.8347C70.4747 53.4513 70.9547 53.2913 71.2747 52.9713C71.6047 52.6513 71.7697 52.2213 71.7697 51.6813C71.7697 51.1413 71.6097 50.7213 71.2897 50.4213C70.9697 50.1113 70.4847 49.9563 69.8347 49.9563H67.9447V53.4513ZM77.4823 49.6263C77.1723 49.6263 76.9123 49.5213 76.7023 49.3113C76.4923 49.1013 76.3873 48.8413 76.3873 48.5313C76.3873 48.2213 76.4923 47.9613 76.7023 47.7513C76.9123 47.5413 77.1723 47.4363 77.4823 47.4363C77.7823 47.4363 78.0373 47.5413 78.2473 47.7513C78.4573 47.9613 78.5623 48.2213 78.5623 48.5313C78.5623 48.8413 78.4573 49.1013 78.2473 49.3113C78.0373 49.5213 77.7823 49.6263 77.4823 49.6263ZM78.3223 50.7213V58.9863H76.6123V50.7213H78.3223ZM84.4673 59.1213C83.8173 59.1213 83.2323 59.0063 82.7123 58.7763C82.2023 58.5363 81.7973 58.2163 81.4973 57.8163C81.1973 57.4063 81.0373 56.9513 81.0173 56.4513H82.7873C82.8173 56.8013 82.9823 57.0963 83.2823 57.3363C83.5923 57.5663 83.9773 57.6813 84.4373 57.6813C84.9173 57.6813 85.2873 57.5913 85.5473 57.4113C85.8173 57.2213 85.9523 56.9813 85.9523 56.6913C85.9523 56.3813 85.8023 56.1513 85.5023 56.0013C85.2123 55.8513 84.7473 55.6863 84.1073 55.5063C83.4873 55.3363 82.9823 55.1713 82.5923 55.0113C82.2023 54.8513 81.8623 54.6063 81.5723 54.2763C81.2923 53.9463 81.1523 53.5113 81.1523 52.9713C81.1523 52.5313 81.2823 52.1313 81.5423 51.7713C81.8023 51.4013 82.1723 51.1113 82.6523 50.9013C83.1423 50.6913 83.7023 50.5863 84.3323 50.5863C85.2723 50.5863 86.0273 50.8263 86.5973 51.3063C87.1773 51.7763 87.4873 52.4213 87.5273 53.2413H85.8173C85.7873 52.8713 85.6373 52.5763 85.3673 52.3563C85.0973 52.1363 84.7323 52.0263 84.2723 52.0263C83.8223 52.0263 83.4773 52.1113 83.2373 52.2813C82.9973 52.4513 82.8773 52.6763 82.8773 52.9563C82.8773 53.1763 82.9573 53.3613 83.1173 53.5113C83.2773 53.6613 83.4723 53.7813 83.7023 53.8713C83.9323 53.9513 84.2723 54.0563 84.7223 54.1863C85.3223 54.3463 85.8123 54.5113 86.1923 54.6813C86.5823 54.8413 86.9173 55.0813 87.1973 55.4013C87.4773 55.7213 87.6223 56.1463 87.6323 56.6763C87.6323 57.1463 87.5023 57.5663 87.2423 57.9363C86.9823 58.3063 86.6123 58.5963 86.1323 58.8063C85.6623 59.0163 85.1073 59.1213 84.4673 59.1213ZM91.25 49.6263C90.94 49.6263 90.68 49.5213 90.47 49.3113C90.26 49.1013 90.155 48.8413 90.155 48.5313C90.155 48.2213 90.26 47.9613 90.47 47.7513C90.68 47.5413 90.94 47.4363 91.25 47.4363C91.55 47.4363 91.805 47.5413 92.015 47.7513C92.225 47.9613 92.33 48.2213 92.33 48.5313C92.33 48.8413 92.225 49.1013 92.015 49.3113C91.805 49.5213 91.55 49.6263 91.25 49.6263ZM92.09 50.7213V58.9863H90.38V50.7213H92.09ZM99.4051 50.5863C100.055 50.5863 100.635 50.7213 101.145 50.9913C101.665 51.2613 102.07 51.6613 102.36 52.1913C102.65 52.7213 102.795 53.3613 102.795 54.1113V58.9863H101.1V54.3663C101.1 53.6263 100.915 53.0613 100.545 52.6713C100.175 52.2713 99.6701 52.0713 99.0301 52.0713C98.3901 52.0713 97.8801 52.2713 97.5001 52.6713C97.1301 53.0613 96.9451 53.6263 96.9451 54.3663V58.9863H95.2351V50.7213H96.9451V51.6663C97.2251 51.3263 97.5801 51.0613 98.0101 50.8713C98.4501 50.6813 98.9151 50.5863 99.4051 50.5863ZM109.206 50.5863C109.846 50.5863 110.411 50.7163 110.901 50.9763C111.401 51.2263 111.791 51.5413 112.071 51.9213V50.7213H113.796V59.1213C113.796 59.8813 113.636 60.5563 113.316 61.1463C112.996 61.7463 112.531 62.2163 111.921 62.5563C111.321 62.8963 110.601 63.0663 109.761 63.0663C108.641 63.0663 107.711 62.8013 106.971 62.2713C106.231 61.7513 105.811 61.0413 105.711 60.1413H107.406C107.536 60.5713 107.811 60.9163 108.231 61.1763C108.661 61.4463 109.171 61.5813 109.761 61.5813C110.451 61.5813 111.006 61.3713 111.426 60.9513C111.856 60.5313 112.071 59.9213 112.071 59.1213V57.7413C111.781 58.1313 111.386 58.4613 110.886 58.7313C110.396 58.9913 109.836 59.1213 109.206 59.1213C108.486 59.1213 107.826 58.9413 107.226 58.5813C106.636 58.2113 106.166 57.7013 105.816 57.0513C105.476 56.3913 105.306 55.6463 105.306 54.8163C105.306 53.9863 105.476 53.2513 105.816 52.6113C106.166 51.9713 106.636 51.4763 107.226 51.1263C107.826 50.7663 108.486 50.5863 109.206 50.5863ZM112.071 54.8463C112.071 54.2763 111.951 53.7813 111.711 53.3613C111.481 52.9413 111.176 52.6213 110.796 52.4013C110.416 52.1813 110.006 52.0713 109.566 52.0713C109.126 52.0713 108.716 52.1813 108.336 52.4013C107.956 52.6113 107.646 52.9263 107.406 53.3463C107.176 53.7563 107.061 54.2463 107.061 54.8163C107.061 55.3863 107.176 55.8863 107.406 56.3163C107.646 56.7463 107.956 57.0763 108.336 57.3063C108.726 57.5263 109.136 57.6363 109.566 57.6363C110.006 57.6363 110.416 57.5263 110.796 57.3063C111.176 57.0863 111.481 56.7663 111.711 56.3463C111.951 55.9163 112.071 55.4163 112.071 54.8463ZM121.697 59.0913C120.727 59.0913 119.832 58.8663 119.012 58.4163C118.202 57.9563 117.557 57.3213 117.077 56.5113C116.607 55.6913 116.372 54.7713 116.372 53.7513C116.372 52.7313 116.607 51.8163 117.077 51.0063C117.557 50.1963 118.202 49.5663 119.012 49.1163C119.832 48.6563 120.727 48.4263 121.697 48.4263C122.677 48.4263 123.572 48.6563 124.382 49.1163C125.202 49.5663 125.847 50.1963 126.317 51.0063C126.787 51.8163 127.022 52.7313 127.022 53.7513C127.022 54.7713 126.787 55.6913 126.317 56.5113C125.847 57.3213 125.202 57.9563 124.382 58.4163C123.572 58.8663 122.677 59.0913 121.697 59.0913ZM121.697 57.6063C122.387 57.6063 123.002 57.4513 123.542 57.1413C124.082 56.8213 124.502 56.3713 124.802 55.7913C125.112 55.2013 125.267 54.5213 125.267 53.7513C125.267 52.9813 125.112 52.3063 124.802 51.7263C124.502 51.1463 124.082 50.7013 123.542 50.3913C123.002 50.0813 122.387 49.9263 121.697 49.9263C121.007 49.9263 120.392 50.0813 119.852 50.3913C119.312 50.7013 118.887 51.1463 118.577 51.7263C118.277 52.3063 118.127 52.9813 118.127 53.7513C118.127 54.5213 118.277 55.2013 118.577 55.7913C118.887 56.3713 119.312 56.8213 119.852 57.1413C120.392 57.4513 121.007 57.6063 121.697 57.6063ZM133.04 59.0913C132.34 59.0913 131.71 58.9713 131.15 58.7313C130.59 58.4813 130.15 58.1313 129.83 57.6813C129.51 57.2313 129.35 56.7063 129.35 56.1063H131.18C131.22 56.5563 131.395 56.9263 131.705 57.2163C132.025 57.5063 132.47 57.6513 133.04 57.6513C133.63 57.6513 134.09 57.5113 134.42 57.2313C134.75 56.9413 134.915 56.5713 134.915 56.1213C134.915 55.7713 134.81 55.4863 134.6 55.2663C134.4 55.0463 134.145 54.8763 133.835 54.7563C133.535 54.6363 133.115 54.5063 132.575 54.3663C131.895 54.1863 131.34 54.0063 130.91 53.8263C130.49 53.6363 130.13 53.3463 129.83 52.9563C129.53 52.5663 129.38 52.0463 129.38 51.3963C129.38 50.7963 129.53 50.2713 129.83 49.8213C130.13 49.3713 130.55 49.0263 131.09 48.7863C131.63 48.5463 132.255 48.4263 132.965 48.4263C133.975 48.4263 134.8 48.6813 135.44 49.1913C136.09 49.6913 136.45 50.3813 136.52 51.2613H134.63C134.6 50.8813 134.42 50.5563 134.09 50.2863C133.76 50.0163 133.325 49.8813 132.785 49.8813C132.295 49.8813 131.895 50.0063 131.585 50.2563C131.275 50.5063 131.12 50.8663 131.12 51.3363C131.12 51.6563 131.215 51.9213 131.405 52.1313C131.605 52.3313 131.855 52.4913 132.155 52.6113C132.455 52.7313 132.865 52.8613 133.385 53.0013C134.075 53.1913 134.635 53.3813 135.065 53.5713C135.505 53.7613 135.875 54.0563 136.175 54.4563C136.485 54.8463 136.64 55.3713 136.64 56.0313C136.64 56.5613 136.495 57.0613 136.205 57.5313C135.925 58.0013 135.51 58.3813 134.96 58.6713C134.42 58.9513 133.78 59.0913 133.04 59.0913ZM147.103 51.5613C146.833 51.0413 146.458 50.6513 145.978 50.3913C145.498 50.1213 144.943 49.9863 144.313 49.9863C143.623 49.9863 143.008 50.1413 142.468 50.4513C141.928 50.7613 141.503 51.2013 141.193 51.7713C140.893 52.3413 140.743 53.0013 140.743 53.7513C140.743 54.5013 140.893 55.1663 141.193 55.7463C141.503 56.3163 141.928 56.7563 142.468 57.0663C143.008 57.3763 143.623 57.5313 144.313 57.5313C145.243 57.5313 145.998 57.2713 146.578 56.7513C147.158 56.2313 147.513 55.5263 147.643 54.6363H143.728V53.2713H149.473V54.6063C149.363 55.4163 149.073 56.1613 148.603 56.8413C148.143 57.5213 147.538 58.0663 146.788 58.4763C146.048 58.8763 145.223 59.0763 144.313 59.0763C143.333 59.0763 142.438 58.8513 141.628 58.4013C140.818 57.9413 140.173 57.3063 139.693 56.4963C139.223 55.6863 138.988 54.7713 138.988 53.7513C138.988 52.7313 139.223 51.8163 139.693 51.0063C140.173 50.1963 140.818 49.5663 141.628 49.1163C142.448 48.6563 143.343 48.4263 144.313 48.4263C145.423 48.4263 146.408 48.7013 147.268 49.2513C148.138 49.7913 148.768 50.5613 149.158 51.5613H147.103Z" fill="white"/>
<g clip-path="url(#clip0_2580_100)">
<path d="M42.2421 35.2461L33.1675 43.9626" stroke="white" stroke-width="1.50661" stroke-linecap="round" stroke-linejoin="round"/>
<path d="M42.2421 35.2461L36.4673 51.0942L33.1674 43.9626L25.7427 40.7929L42.2421 35.2461Z" stroke="white" stroke-width="1.50661" stroke-linecap="round" stroke-linejoin="round"/>
</g>
<defs>
<clipPath id="clip0_2580_100">
<rect width="19.7993" height="19.0178" fill="white" transform="translate(24.0928 33.6611)"/>
</clipPath>
</defs>
</svg>
