<svg width="56" height="56" viewBox="0 0 56 56" fill="none" xmlns="http://www.w3.org/2000/svg">
<circle cx="28" cy="28" r="28" fill="#0B0B0B"/>
<path d="M23.077 30V28H25.077V30H23.077ZM33.077 22.494C33.0754 22.0972 32.9167 21.7172 32.6355 21.4372C32.3544 21.1572 31.9738 21 31.577 21H21.5C21.1022 21 20.7206 21.158 20.4393 21.4393C20.158 21.7206 20 22.1022 20 22.5V31.5C20 32.163 20.2634 32.7989 20.7322 33.2678C21.2011 33.7366 21.837 34 22.5 34H33.654C34.317 34 34.9529 33.7366 35.4218 33.2678C35.8906 32.7989 36.154 32.163 36.154 31.5V25.5C36.154 25.1022 35.996 24.7206 35.7147 24.4393C35.4334 24.158 35.0518 24 34.654 24H34.077V31.23C34.077 31.3626 34.0243 31.4898 33.9306 31.5836C33.8368 31.6773 33.7096 31.73 33.577 31.73C33.4444 31.73 33.3172 31.6773 33.2234 31.5836C33.1297 31.4898 33.077 31.3626 33.077 31.23V22.494ZM22.077 24.5C22.077 24.3674 22.1297 24.2402 22.2234 24.1464C22.3172 24.0527 22.4444 24 22.577 24H30.577C30.7096 24 30.8368 24.0527 30.9306 24.1464C31.0243 24.2402 31.077 24.3674 31.077 24.5C31.077 24.6326 31.0243 24.7598 30.9306 24.8536C30.8368 24.9473 30.7096 25 30.577 25H22.577C22.4444 25 22.3172 24.9473 22.2234 24.8536C22.1297 24.7598 22.077 24.6326 22.077 24.5ZM27.577 27H30.577C30.7096 27 30.8368 27.0527 30.9306 27.1464C31.0243 27.2402 31.077 27.3674 31.077 27.5C31.077 27.6326 31.0243 27.7598 30.9306 27.8536C30.8368 27.9473 30.7096 28 30.577 28H27.577C27.4444 28 27.3172 27.9473 27.2234 27.8536C27.1297 27.7598 27.077 27.6326 27.077 27.5C27.077 27.3674 27.1297 27.2402 27.2234 27.1464C27.3172 27.0527 27.4444 27 27.577 27ZM27.077 30.5C27.077 30.3674 27.1297 30.2402 27.2234 30.1464C27.3172 30.0527 27.4444 30 27.577 30H30.577C30.7096 30 30.8368 30.0527 30.9306 30.1464C31.0243 30.2402 31.077 30.3674 31.077 30.5C31.077 30.6326 31.0243 30.7598 30.9306 30.8536C30.8368 30.9473 30.7096 31 30.577 31H27.577C27.4444 31 27.3172 30.9473 27.2234 30.8536C27.1297 30.7598 27.077 30.6326 27.077 30.5ZM22.577 27H25.577C25.7096 27 25.8368 27.0527 25.9306 27.1464C26.0243 27.2402 26.077 27.3674 26.077 27.5V30.5C26.077 30.6326 26.0243 30.7598 25.9306 30.8536C25.8368 30.9473 25.7096 31 25.577 31H22.577C22.4444 31 22.3172 30.9473 22.2234 30.8536C22.1297 30.7598 22.077 30.6326 22.077 30.5V27.5C22.077 27.3674 22.1297 27.2402 22.2234 27.1464C22.3172 27.0527 22.4444 27 22.577 27Z" fill="white"/>
</svg>
